<?xml version="1.0" encoding="utf-8"?><!DOCTYPE svg PUBLIC "-//W3C//DTD SVG 1.1//EN" "http://www.w3.org/Graphics/SVG/1.1/DTD/svg11.dtd"><svg version="1.1" xmlns="http://www.w3.org/2000/svg" xmlns:xlink="http://www.w3.org/1999/xlink" x="0px" y="0px" viewBox="0 0 38.549 125" enable-background="new 0 0 38.549 100" xml:space="preserve"><path d="M36.283,0.511l-4.38-0.399l-2.801,27.125l4.784,0.002c1.562,0.078,2.357-1.439,2.482-2.53L38.549,3.6
	C38.541,2.406,37.62,1.037,36.283,0.511z"/><path d="M17.023,49.994h0.018c0.091-8.214,0.91-15.045,1.227-17.403c0.601-3.599,1.326-3.992,3.474-4.603
	c1.479-0.418,2.22-0.562,3.33-0.646L27.895,0c-2.373,0.037-5.972,0.581-9.43,1.573c-3.709,1.104-7.372,2.682-9.352,4.32
	C5.166,14.956,0,32.992,0,49.994v0.011c0,17.002,5.166,35.038,9.113,44.101c1.979,1.639,5.643,3.217,9.352,4.32
	c3.458,0.992,7.057,1.535,9.43,1.574l-2.823-27.344c-1.11-0.082-1.852-0.228-3.33-0.646c-2.147-0.61-2.873-1.004-3.474-4.603
	c-0.316-2.358-1.136-9.189-1.227-17.403h-0.018V49.994z"/><path d="M36.369,75.291c-0.125-1.091-0.921-2.609-2.482-2.529h-4.784l2.801,27.125l4.38-0.398c1.337-0.526,2.258-1.896,2.266-3.089
	L36.369,75.291z"/></svg>
