<svg xmlns="http://www.w3.org/2000/svg" xmlns:xlink="http://www.w3.org/1999/xlink" version="1.1" x="0px" y="0px" viewBox="0 0 64 80" enable-background="new 0 0 64 64" xml:space="preserve"><g><g><path d="M3.842,63C2.275,63,1,61.726,1,60.158V27.344c0-1.567,1.275-2.842,2.842-2.842h56.317c1.566,0,2.841,1.275,2.841,2.842    v32.814C63,61.726,61.726,63,60.159,63H3.842z M15.175,41.905c-5.119,0-9.283,4.164-9.283,9.283s4.165,9.284,9.283,9.284    c5.12,0,9.285-4.165,9.285-9.284S20.294,41.905,15.175,41.905z M30.276,59.345h27.968v-4H30.276V59.345z M30.276,55.34h27.968v-4    H30.276V55.34z M30.276,51.335h27.968v-4H30.276V51.335z M30.276,47.33h27.968v-4H30.276V47.33z M5.034,40.934h53.934V27.962    H5.034V40.934z"/><path d="M60.159,25.502c1.015,0,1.841,0.826,1.841,1.842v32.814C62,61.174,61.174,62,60.159,62H3.842C2.826,62,2,61.174,2,60.158    V27.344c0-1.016,0.826-1.842,1.842-1.842H60.159 M4.034,41.934h2h4.66c-3.432,1.668-5.803,5.189-5.803,9.255    c0,5.671,4.613,10.284,10.283,10.284c5.671,0,10.285-4.613,10.285-10.284c0-4.065-2.372-7.587-5.804-9.255h38.312h2v-2V28.962v-2    h-2H6.034h-2v2v10.972V41.934 M29.276,48.33v0.005v2v2v0.005v2v2v0.005v2v2h2h25.968h2v-2v-2v-2V54.34v-2v-2v-0.005v-2v-2V46.33    v-2v-2h-2H31.276h-2v2v2V48.33 M60.159,23.502H3.842C1.729,23.502,0,25.23,0,27.344v32.814C0,62.271,1.729,64,3.842,64h56.317    C62.272,64,64,62.271,64,60.158V27.344C64,25.23,62.272,23.502,60.159,23.502L60.159,23.502z M6.034,39.934V28.962h51.934v10.972    H6.034L6.034,39.934z M15.175,59.473c-4.574,0-8.283-3.709-8.283-8.284c0-4.574,3.709-8.283,8.283-8.283    c4.576,0,8.285,3.709,8.285,8.283C23.46,55.764,19.751,59.473,15.175,59.473L15.175,59.473z M31.276,46.33v-2h25.968v2H31.276    L31.276,46.33z M31.276,50.335v-2h25.968v2H31.276L31.276,50.335z M31.276,54.34v-2h25.968v2H31.276L31.276,54.34z M31.276,58.345    v-2h25.968v2H31.276L31.276,58.345z"/></g><g><path d="M8.376,2c1.175,0,2.131,0.957,2.131,2.132c0,0.1-0.021,0.238-0.042,0.361L10.38,4.997l-0.333,0.43    C9.634,5.958,9.024,6.263,8.376,6.263c-1.175,0-2.132-0.956-2.132-2.131C6.244,2.957,7.201,2,8.376,2 M8.376,0    C6.094,0,4.244,1.85,4.244,4.132c0,2.281,1.85,4.131,4.132,4.131c1.327,0,2.494-0.637,3.25-1.609l36.688,15.46h5.153L12.438,4.824    c0.038-0.227,0.069-0.455,0.069-0.692C12.507,1.85,10.657,0,8.376,0L8.376,0z"/></g></g></svg>